<svg id="Capa_1" enable-background="new 0 0 512 512" height="512" viewBox="0 0 512 512" width="512" xmlns="http://www.w3.org/2000/svg" xmlns:xlink="http://www.w3.org/1999/xlink"><linearGradient id="SVGID_1_" gradientUnits="userSpaceOnUse" x1="5.399" x2="506.601" y1="256" y2="256"><stop offset="0" stop-color="#ffdbed"/><stop offset="1" stop-color="#dcfdee"/></linearGradient><g><g><g><path d="m461.173 27.352c-63.757-37.987-146.258-35.878-208.873 3.041-35.18 21.866-62.374 53.403-93.212 80.552-27.022 23.789-58.445 40.758-86.353 63.204-101.21 81.403-91.553 300.961 50.962 330.125 61.777 12.642 146.21 16.696 182.519-43.642 34.62-57.531 46.232-116.383 113.876-146.942 23.573-10.65 62.975-10.113 78.944-33.45 20.152-29.45-4.853-60.043-18.192-85.707-17.19-33.074-20.795-65.682-8.699-101.16 10.298-30.211 17.549-43.782-10.972-66.021z" fill="url(#SVGID_1_)"/></g><g><path d="m484.07 290.18-46.64-46.64c-6.29-6.29-17.035-1.853-17.068 7.03v-24.592c0-5.523-4.477-10-10-10h-23.832v-127.938c0-16.57-13.43-30-30-30h-201.06c-16.57 0-30 13.43-30 30v377.92c0 16.57 13.43 30 30 30h201.06c16.57 0 30-13.43 30-30v-135.62h33.83v13.55c0 8.91 10.77 13.37 17.07 7.07l46.64-46.64c3.91-3.9 3.91-10.24 0-14.14z" fill="#2626bc" opacity=".1"/><path d="m386.53 64.041v377.92c0 16.57-13.43 30-30 30h-201.06c-16.57 0-30-13.43-30-30v-377.92c0-16.57 13.43-30 30-30h201.06c16.57 0 30 13.429 30 30z" fill="#fff"/><path d="m386.53 208.641v114.37h-23.65c-5.52 0-10-4.48-10-10v-24.56c-.06 8.86-10.79 13.28-17.07 7l-46.64-46.64c-3.9-3.91-3.9-10.24 0-14.15l46.64-46.64c6.3-6.3 17.07-1.83 17.07 7.08v13.54z" fill="#d2deff"/><path d="m340 234.16v12c0 5.52-4.48 10-10 10h-148c-5.52 0-10-4.48-10-10v-12c0-5.52 4.48-10 10-10h148c5.52 0 10 4.481 10 10z" fill="#b7c5ff"/><path d="m340 234.16v12c0 5.52-4.48 10-10 10h-33.48l-7.35-7.35c-3.9-3.91-3.9-10.24 0-14.15l10.5-10.5h30.33c5.52 0 10 4.481 10 10z" fill="#9fb0fe"/><path d="m311.593 56.979 7.157-22.939h-125.5l7.157 22.939c1.303 4.177 5.171 7.022 9.546 7.022h92.093c4.376-.001 8.244-2.845 9.547-7.022z" fill="#6583fe"/><g><g><path d="m484.07 280.32-46.64 46.64c-6.3 6.3-17.07 1.84-17.07-7.07v-13.55h-57.48c-5.52 0-10-4.48-10-10v-46.18c0-5.52 4.48-10 10-10h57.48v-13.55c0-8.91 10.77-13.37 17.07-7.07l46.64 46.64c3.91 3.9 3.91 10.24 0 14.14z" fill="#ff7eb8"/><path d="m420.36 240.16v25c0 5.52-4.48 10-10 10h-57.48v-25c0-5.52 4.48-10 10-10z" fill="#ff5ba8"/></g><path d="m289.172 232.14 46.64 46.64c6.3 6.3 17.071 1.838 17.071-7.071v-13.549h57.479c5.523 0 10-4.477 10-10v-46.183c0-5.523-4.477-10-10-10h-57.479v-13.549c0-8.909-10.771-13.371-17.071-7.071l-46.64 46.64c-3.906 3.906-3.906 10.238 0 14.143z" fill="#6583fe"/></g><g><circle cx="256" cy="143.694" fill="#ff7eb8" r="53.445"/><path d="m272.613 137.887c0-9.161-7.453-16.613-16.613-16.613-9.161 0-16.613 7.453-16.613 16.613 0 4.518 1.818 8.615 4.755 11.613-2.936 2.998-4.755 7.095-4.755 11.613 0 2.761 2.239 5 5 5s5-2.239 5-5c0-3.646 2.967-6.613 6.613-6.613s6.613 2.967 6.613 6.613c0 2.761 2.239 5 5 5s5-2.239 5-5c0-4.518-1.818-8.615-4.755-11.613 2.937-2.997 4.755-7.095 4.755-11.613zm-16.613-6.613c3.646 0 6.613 2.967 6.613 6.613s-2.967 6.613-6.613 6.613-6.613-2.967-6.613-6.613 2.967-6.613 6.613-6.613z" fill="#fff"/></g><g><path d="m309.26 286.729h-106.52c-2.762 0-5-2.239-5-5s2.238-5 5-5h106.52c2.762 0 5 2.239 5 5s-2.239 5-5 5z" fill="#02ffb3"/></g><g><path d="m309.26 308.662h-106.52c-2.762 0-5-2.239-5-5s2.238-5 5-5h106.52c2.762 0 5 2.239 5 5s-2.239 5-5 5z" fill="#02ffb3"/></g><g><path d="m309.26 438.162h-106.52c-2.762 0-5-2.239-5-5s2.238-5 5-5h106.52c2.762 0 5 2.239 5 5s-2.239 5-5 5z" fill="#6583fe"/></g><g><g><circle cx="187.583" cy="368.754" fill="#ff7eb8" r="29.589"/></g><path d="m180.167 384.587c-1.28 0-2.559-.488-3.536-1.464l-3.5-3.5c-1.953-1.953-1.953-5.119 0-7.071 1.942-1.94 5.081-1.953 7.036-.035l11.268-11.269c-1.754-1.963-1.688-4.979.196-6.863 1.953-1.952 5.118-1.952 7.071 0l3.333 3.333c1.953 1.953 1.953 5.119 0 7.071l-18.333 18.333c-.976.977-2.256 1.465-3.535 1.465z" fill="#fff"/></g><g><g><circle cx="335.25" cy="368.754" fill="#02ffb3" r="29.589"/></g><path d="m327.667 384.587c-1.279 0-2.559-.488-3.535-1.464l-3.334-3.333c-.938-.938-1.465-2.209-1.465-3.536s.526-2.598 1.465-3.536l18.334-18.333c1.951-1.952 5.119-1.952 7.07 0l3.5 3.5c1.953 1.953 1.953 5.119 0 7.071-1.939 1.94-5.08 1.954-7.035.035l-11.269 11.268c1.754 1.963 1.689 4.979-.195 6.863-.976.977-2.257 1.465-3.536 1.465z" fill="#fff"/></g><g fill="#b7c5ff"><circle cx="236.667" cy="368.754" r="5.624"/><circle cx="261.417" cy="368.754" r="5.624"/><circle cx="286.167" cy="368.754" r="5.624"/></g><g><path d="m179.833 63.121h-19c-2.761 0-5-2.239-5-5v-4.98c0-2.761 2.239-5 5-5h19c2.761 0 5 2.239 5 5v4.98c0 2.761-2.238 5-5 5z" fill="#b7c5ff"/><g><g><path d="m335.917 62.38c-2.761 0-5-2.239-5-5v-3.5c0-2.761 2.239-5 5-5s5 2.239 5 5v3.5c0 2.762-2.239 5-5 5z" fill="#b7c5ff"/></g><g><path d="m351.167 62.38c-2.761 0-5-2.239-5-5v-3.5c0-2.761 2.239-5 5-5s5 2.239 5 5v3.5c0 2.762-2.239 5-5 5z" fill="#b7c5ff"/></g></g></g><path d="m76 112.67c-1.28 0-2.559-.488-3.536-1.464l-11-11c-1.953-1.953-1.953-5.119 0-7.071l11-11c1.953-1.952 5.118-1.952 7.071 0l11 11c1.953 1.953 1.953 5.119 0 7.071l-11 11c-.976.976-2.255 1.464-3.535 1.464zm-3.929-16 3.929 3.929 3.929-3.929-3.929-3.928z" fill="#6583fe"/><path d="m454 405.716c-1.279 0-2.56-.488-3.535-1.464l-11-11c-1.953-1.953-1.953-5.119 0-7.071l11-11c1.951-1.952 5.119-1.952 7.07 0l11 11c1.953 1.953 1.953 5.119 0 7.071l-11 11c-.975.976-2.256 1.464-3.535 1.464zm-3.929-16 3.929 3.929 3.929-3.929-3.929-3.928z" fill="#ff7eb8"/><path d="m433.189 80c-2.762 0-5-2.239-5-5 0-3.309-2.691-6-6-6-2.762 0-5-2.239-5-5s2.238-5 5-5c3.309 0 6-2.691 6-6 0-2.761 2.238-5 5-5s5 2.239 5 5c0 3.309 2.691 6 6 6 2.762 0 5 2.239 5 5s-2.238 5-5 5c-3.309 0-6 2.691-6 6 0 2.762-2.238 5-5 5z" fill="#01eca5"/><path d="m49 162.58c-2.761 0-5-2.239-5-5 0-3.309-2.691-6-6-6-2.761 0-5-2.239-5-5s2.239-5 5-5c3.309 0 6-2.692 6-6 0-2.761 2.239-5 5-5s5 2.239 5 5c0 3.309 2.691 6 6 6 2.761 0 5 2.239 5 5s-2.239 5-5 5c-3.309 0-6 2.691-6 6 0 2.761-2.239 5-5 5z" fill="#ff7eb8"/><path d="m87 414.09c-2.761 0-5-2.239-5-5 0-3.309-2.691-6-6-6-2.761 0-5-2.239-5-5s2.239-5 5-5c3.309 0 6-2.691 6-6 0-2.761 2.239-5 5-5s5 2.239 5 5c0 3.309 2.691 6 6 6 2.761 0 5 2.239 5 5s-2.239 5-5 5c-3.309 0-6 2.691-6 6 0 2.761-2.239 5-5 5z" fill="#6583fe"/></g></g><g fill="#2626bc"><path d="m155.469 476.961h201.063c19.299 0 35-15.701 35-35v-101.961c0-2.761-2.238-5-5-5s-5 2.239-5 5v101.961c0 13.785-11.215 25-25 25h-201.063c-13.785 0-25-11.215-25-25v-377.921c0-13.785 11.215-25 25-25h201.063c13.785 0 25 11.215 25 25v93.541c0 2.761 2.238 5 5 5s5-2.239 5-5v-93.541c0-19.299-15.701-35-35-35h-201.063c-19.299 0-35 15.701-35 35v377.922c0 19.298 15.7 34.999 35 34.999z"/><path d="m440.969 216.004c-4.183-4.184-10.103-5.495-15.607-3.527v-10.499c0-8.271-6.729-15-15-15h-52.479v-8.549c0-6.182-3.548-11.492-9.26-13.858-5.711-2.366-11.976-1.121-16.347 3.251l-46.64 46.64c-5.849 5.849-5.849 15.365 0 21.213l46.64 46.64c2.906 2.907 6.649 4.432 10.511 4.432 1.698 0 3.415-.314 5.097-.915v10.509c0 8.271 6.729 15 15 15h52.479v8.549c0 6.182 3.548 11.492 9.26 13.858 1.914.793 3.89 1.18 5.835 1.18 3.861 0 7.605-1.525 10.512-4.432l46.641-46.64c5.849-5.849 5.849-15.365 0-21.214zm-93.086 55.705c0 3.1-2.362 4.32-3.087 4.62-.724.299-3.259 1.107-5.449-1.084l-46.64-46.64c-1.949-1.949-1.949-5.122 0-7.071l46.64-46.64c1.159-1.159 2.414-1.479 3.446-1.479.919 0 1.662.254 2.003.396.725.3 3.087 1.519 3.087 4.619v13.549c0 2.761 2.238 5 5 5h57.479c2.757 0 5 2.243 5 5v46.183c0 2.757-2.243 5-5 5h-57.479c-2.762 0-5 2.239-5 5zm132.656 5.077-46.641 46.64c-2.192 2.192-4.726 1.385-5.449 1.084-.725-.3-3.087-1.519-3.087-4.619v-13.549c0-2.761-2.238-5-5-5h-57.479c-2.757 0-5-2.243-5-5v-29.636h-.001v-3.545h52.479c8.271 0 15-6.729 15-15v-15.819s.001 0 .001.001v-5.732c0-3.1 2.362-4.319 3.087-4.619.724-.3 3.258-1.107 5.449 1.084l46.641 46.64c1.949 1.949 1.949 5.12 0 7.07z"/></g></g></svg>