<?xml version="1.0" encoding="UTF-8" standalone="no"?><!-- Generator: Gravit.io --><svg xmlns="http://www.w3.org/2000/svg" xmlns:xlink="http://www.w3.org/1999/xlink" style="isolation:isolate" viewBox="0 0 24 20" width="24pt" height="20pt"><defs><clipPath id="_clipPath_QDdL59SnxbrV9Qs4hPgtHZSOQRwUPCFQ"><rect width="24" height="20"/></clipPath></defs><g clip-path="url(#_clipPath_QDdL59SnxbrV9Qs4hPgtHZSOQRwUPCFQ)"><g><path d=" M 1.772 1 L 22.228 1 C 22.654 1 23 1.346 23 1.772 L 23 3.228 C 23 3.654 22.654 4 22.228 4 L 1.772 4 C 1.346 4 1 3.654 1 3.228 L 1 1.772 C 1 1.346 1.346 1 1.772 1 Z " fill="rgb(0,0,0)"/><path d=" M 1.772 8.5 L 22.228 8.5 C 22.654 8.5 23 8.846 23 9.272 L 23 10.728 C 23 11.154 22.654 11.5 22.228 11.5 L 1.772 11.5 C 1.346 11.5 1 11.154 1 10.728 L 1 9.272 C 1 8.846 1.346 8.5 1.772 8.5 Z " fill="rgb(0,0,0)"/><path d=" M 1.772 16 L 22.228 16 C 22.654 16 23 16.346 23 16.772 L 23 18.228 C 23 18.654 22.654 19 22.228 19 L 1.772 19 C 1.346 19 1 18.654 1 18.228 L 1 16.772 C 1 16.346 1.346 16 1.772 16 Z " fill="rgb(0,0,0)"/></g></g></svg>