<svg xmlns="http://www.w3.org/2000/svg" width="150" height="149.389" viewBox="0 0 150 149.389">
  <g id="faceboockCircle" transform="translate(-2656 -1833)">
    <path id="Sustracción_1" data-name="Sustracción 1" d="M2404.622,1689.389h0v-57.982h18.293l2.9-23.33h-21.2V1592c0-3.911.647-6.443,2.087-8.208,1.729-2.12,4.716-3.151,9.13-3.151h11.982v-20.869a155.318,155.318,0,0,0-17.456-.924c-17.956,0-29.111,11.817-29.111,30.839v18.381h-19.064v23.33h19.064v57.341a74.349,74.349,0,0,1-24.274-9.083,75,75,0,1,1,47.648,9.729Z" transform="translate(336 293)" fill="#fff"/>
  </g>
</svg>
