<svg xmlns="http://www.w3.org/2000/svg" width="512.003" height="430" viewBox="0 0 512.003 430">
  <defs>
    <style>
      .cls-1 {
        fill: #fff;
      }
    </style>
  </defs>
  <g id="Grupo_4" data-name="Grupo 4" transform="translate(-607 -1089)">
    <g id="email" transform="translate(607.001 1047.999)">
      <path id="Trazado_8" data-name="Trazado 8" class="cls-1" d="M511.976,151.535a14.968,14.968,0,0,0-10.46-13.839c-3.077-.971.325-.7-106.458-.7A214.75,214.75,0,0,0,216,41C96.9,41,0,137.45,0,256S96.9,471,216,471a214.752,214.752,0,0,0,179.059-96H497a15,15,0,0,0,15-15c0-182.611.013-207.28-.024-208.466ZM453.981,167,365.9,236.932,275.791,167ZM216,441C113.439,441,30,358.01,30,256S113.439,71,216,71a183.552,183.552,0,0,1,141.692,66c-134.475,0-125.565-.029-126.727.052a14.991,14.991,0,0,0-13.9,13.656c-.1,1.111-.065-5.316-.065,82.291H144a15,15,0,1,0,0,30h73v97a15,15,0,0,0,15,15H357.692A183.549,183.549,0,0,1,216,441Zm31-96V182.63l109.8,85.22a15,15,0,0,0,18.523-.1L482,183.062V345Z"/>
      <path id="Trazado_9" data-name="Trazado 9" class="cls-1" d="M128,199h24a15,15,0,0,0,0-30H128a15,15,0,0,0,0,30Z"/>
      <path id="Trazado_10" data-name="Trazado 10" class="cls-1" d="M144,297H96a15,15,0,0,0,0,30h48a15,15,0,0,0,0-30Z"/>
    </g>
  </g>
</svg>
