<svg id="outline" height="512" viewBox="0 0 512 512" width="512" xmlns="http://www.w3.org/2000/svg"><path d="m300.94434 232-13.78907-27.57812a7.99967 7.99967 0 0 0 -7.15527-4.42188h-80a7.99967 7.99967 0 0 0 -7.15527 4.42188l-13.78907 27.57812h-11.05566a8.00008 8.00008 0 0 0 -8 8v248a8.00008 8.00008 0 0 0 8 8h144a8.00008 8.00008 0 0 0 8-8v-248a8.00008 8.00008 0 0 0 -8-8zm-96-16h70.11132l8 16h-86.11132zm99.05566 32v24h-128v-24zm-128 232v-192h128v192z" style="fill:#337ab7"/><path d="m200 312h16v16h-16z" style="fill:#337ab7"/><path d="m232 312h16v16h-16z" style="fill:#337ab7"/><path d="m200 344h16v16h-16z" style="fill:#337ab7"/><path d="m232 344h16v16h-16z" style="fill:#337ab7"/><path d="m200 376h16v16h-16z" style="fill:#337ab7"/><path d="m232 376h16v16h-16z" style="fill:#337ab7"/><path d="m200 408h16v16h-16z" style="fill:#337ab7"/><path d="m232 408h16v16h-16z" style="fill:#337ab7"/><path d="m200 440h16v16h-16z" style="fill:#337ab7"/><path d="m232 440h16v16h-16z" style="fill:#337ab7"/><path d="m264 312h16v16h-16z" style="fill:#337ab7"/><path d="m264 344h16v16h-16z" style="fill:#337ab7"/><path d="m264 376h16v16h-16z" style="fill:#337ab7"/><path d="m264 408h16v16h-16z" style="fill:#337ab7"/><path d="m264 440h16v16h-16z" style="fill:#337ab7"/><path d="m24 208h32a8.00008 8.00008 0 0 0 8-8v-48h16v336a8.00008 8.00008 0 0 0 8 8h48a8.00008 8.00008 0 0 0 8-8v-264h8a8.00044 8.00044 0 0 0 7.80957-6.26465l14.60785-65.73535h129.58258a7.9999 7.9999 0 0 0 6.146-13.12109l-40-48a8.00036 8.00036 0 0 0 -6.146-2.87891h-82.23389l-22.17675-66.53027a7.99967 7.99967 0 0 0 -7.58936-5.46973h-24a7.988 7.988 0 0 0 -4.64856 1.49219l-.00134-.002-.02637.0188-.00244.00171-53.88489 38.4893h-21.4364a8.00035 8.00035 0 0 0 -5.65674 2.34277l-24 24a8.00076 8.00076 0 0 0 -2.34326 5.65723v112a8.00008 8.00008 0 0 0 8 8zm56-139.8833 32.63086-23.30762-16.22022 48.66065c-.00494.01489-.0072.03027-.01208.04492a7.9579 7.9579 0 0 0 -.36157 1.75366c-.009.09839-.00952.19653-.015.29517-.00783.14526-.02199.28906-.02199.43652v8h-16zm118.91974 35.8833-26.66663 32h-4.25311v-32zm20.82715 0h4.25311v32h-30.91974zm-90.66663 32 22.91974-27.50366v27.50366zm-17.08026-4.49634v-27.50366h22.91974zm-16-11.50366v16h-64v-16zm-48 72h-16v-40h16zm48 129.08008 32 26.66675v4.25317h-32zm0 72 32 26.66675v4.25317h-32zm0-20.82691v-4.25317h32v30.91992zm0-72v-4.25317h32v30.91992zm32-20.25317h-32v-30.91992l32 26.66675zm-32 200v-40h32v40zm32-225.08008-32-26.66675v-4.25317h32zm-32-46.91992v-56h16v32a8.00008 8.00008 0 0 0 8 8h29.13806l-3.55554 16zm56.69354-32h-24.69354v-24h30.02686zm134.22638-40h-46.91992v-32h20.25293zm-140.68603-104 18.6665 56h-49.80078l18.6665-56zm-94.92041 40h12.68652v32h-32v-12.68652z" style="fill:#337ab7"/><path d="m488 208h-32.36133a9.37506 9.37506 0 0 1 -8.6958-5.79883l-.09961-.23926a9.39281 9.39281 0 0 1 2.03809-10.27441l22.88281-22.88281a8.00034 8.00034 0 0 0 0-11.31446l-45.25439-45.25488a8.00269 8.00269 0 0 0 -11.31348 0l-22.88379 22.88379a9.38984 9.38984 0 0 1 -10.2832 2.0332l-.21875-.08984a9.37891 9.37891 0 0 1 -5.81055-8.70117v-32.36133a8.00008 8.00008 0 0 0 -8-8h-48v16h40v24.36133a25.45143 25.45143 0 0 0 2.39026 10.7876 111.85575 111.85575 0 0 0 -26.39026-3.14893v16a96 96 0 0 1 0 192v16a111.87125 111.87125 0 0 0 26.39062-3.14893 25.44712 25.44712 0 0 0 -2.39062 10.7876v24.36133h-24v16h32a8.00008 8.00008 0 0 0 8-8v-32.36133a9.38 9.38 0 0 1 5.81641-8.70312l.22265-.0918a9.38992 9.38992 0 0 1 10.27393 2.03809l22.8833 22.88281a8.0018 8.0018 0 0 0 11.31348 0l45.25439-45.25488a8.00034 8.00034 0 0 0 0-11.31446l-22.88232-22.88183a9.4 9.4 0 0 1 -2.02979-10.29493l.08594-.208a9.37949 9.37949 0 0 1 8.70068-5.81055h32.36133a8.00008 8.00008 0 0 0 8-8v-64a8.00008 8.00008 0 0 0 -8-8zm-93.73328-55.61572a25.43091 25.43091 0 0 0 9.35974-5.95166l17.22654-17.22657 33.941 33.94141-17.22662 17.22654a25.40946 25.40946 0 0 0 -5.95044 9.36133 112.86872 112.86872 0 0 0 -37.35022-37.35105zm60.52728 180.46826-33.941 33.94146-17.226-17.22564a25.43472 25.43472 0 0 0 -9.36059-5.95239 112.8684 112.8684 0 0 0 37.34959-37.34961 25.43448 25.43448 0 0 0 5.9519 9.36059zm25.206-60.85254h-24.36133a25.44088 25.44088 0 0 0 -10.78772 2.39136 112.163 112.163 0 0 0 .00012-52.782 25.45006 25.45006 0 0 0 10.7876 2.39064h24.36133z" style="fill:#337ab7"/><path d="m336 280v16a48 48 0 0 0 0-96v16a32 32 0 0 1 0 64z" style="fill:#337ab7"/></svg>